<svg xmlns="http://www.w3.org/2000/svg" xmlns:xlink="http://www.w3.org/1999/xlink" width="462" height="134" viewBox="0 0 462 134">
    <defs>
        <path id="b" d="M334.542 64.505l1.01 6.38c-.542-.11-1.542-.098-2.38.035-2.235.354-2.883 1.384-2.544 3.526l.28 1.762 5.027-.797.988 6.236-5.028.797 2.812 17.757-7.635 1.21-2.813-17.758-3.538.56-.988-6.236 3.538-.56-.309-1.952c-.965-6.093 1.402-9.835 7.92-10.868 1.257-.199 2.87-.26 3.66-.092z"/>
        <filter id="a" width="481.8%" height="321.1%" x="-190.9%" y="-86.8%" filterUnits="objectBoundingBox">
            <feOffset dy="9" in="SourceAlpha" result="shadowOffsetOuter1"/>
            <feGaussianBlur in="shadowOffsetOuter1" result="shadowBlurOuter1" stdDeviation="12.5"/>
            <feColorMatrix in="shadowBlurOuter1" values="0 0 0 0 0 0 0 0 0 0 0 0 0 0 0 0 0 0 0.1 0"/>
        </filter>
    </defs>
    <g fill="none" fill-rule="evenodd">
        <g>
            <use fill="#000" filter="url(#a)" xlink:href="#b"/>
            <use fill="#FFF" xlink:href="#b"/>
        </g>
        <path fill="#FFF" d="M28.488 96.592c0 5.184-4.704 9.408-11.472 9.408H.36V72.4h15.984c4.944 0 9.408 3.408 9.408 8.544 0 3.168-1.824 5.952-4.896 7.248 4.8.912 7.632 3.6 7.632 8.4zm-8.16-.864c0-2.256-1.92-3.696-4.56-3.696H8.424v7.488h7.584c2.544 0 4.32-1.68 4.32-3.792zM8.424 85.648h5.568c2.4 0 3.792-1.44 3.792-3.504 0-1.872-1.584-3.264-4.032-3.264H8.424v6.768zM48.12 95.68V81.808h7.872V106H48.36v-3.6c-1.056 2.304-3.84 4.176-7.2 4.176-5.808 0-8.592-3.984-8.592-9.744V81.808h7.872v13.824c0 2.496 1.104 4.224 3.744 4.224 2.496 0 3.936-1.584 3.936-4.176zM69.864 106h-7.872V81.808h7.872V106zm.576-31.392c0 2.544-1.968 4.464-4.512 4.464-2.496 0-4.512-1.92-4.512-4.464 0-2.496 2.016-4.416 4.512-4.416 2.544 0 4.512 1.968 4.512 4.416zM83.736 106h-7.872V70.96h7.872V106zm16.56-24.768c3.648 0 6.384 1.728 7.488 4.176V70.96h7.872V106h-7.584v-3.6c-1.344 2.304-4.128 4.176-7.776 4.176-7.008 0-12.096-5.472-12.096-12.672s5.088-12.672 12.096-12.672zm1.584 18.816c3.456 0 5.904-2.592 5.904-6.144s-2.448-6.144-5.904-6.144c-3.408 0-5.808 2.64-5.808 6.144s2.4 6.144 5.808 6.144zM129.528 106h-7.872V81.808h7.872V106zm.576-31.392c0 2.544-1.968 4.464-4.512 4.464-2.496 0-4.512-1.92-4.512-4.464 0-2.496 2.016-4.416 4.512-4.416 2.544 0 4.512 1.968 4.512 4.416zM143.4 92.224V106h-7.872V81.808h7.632v3.6c1.056-2.304 3.936-4.176 7.296-4.176 5.808 0 8.688 3.984 8.688 9.744V106h-7.872V92.272c0-2.496-1.2-4.224-3.84-4.224-2.448 0-4.032 1.488-4.032 4.176zm31.824-10.992c3.648 0 6.432 1.728 7.536 4.176v-3.6h7.728v23.712c0 6.288-5.904 11.04-13.536 11.04-6.72 0-11.616-2.88-13.344-8.64h7.824c.912 1.728 2.736 2.592 5.424 2.592 3.216 0 5.76-1.68 5.76-5.04v-3.84c-1.104 1.968-3.984 3.792-7.392 3.792-7.008 0-11.856-5.184-11.856-12.096s4.848-12.096 11.856-12.096zm1.584 17.76c3.456 0 5.808-2.4 5.808-5.664s-2.352-5.664-5.808-5.664c-3.408 0-5.664 2.4-5.664 5.664s2.256 5.664 5.664 5.664zm41.472-1.536l5.184-15.648h8.112L221.928 106l-3.648 10.032h-8.208l4.176-10.992-9.264-23.232h8.112l5.184 15.648zm27.696-16.224c8.592 0 13.44 6.144 13.44 12.672 0 6.528-4.848 12.672-13.44 12.672-8.592 0-13.44-6.144-13.44-12.672 0-6.528 4.848-12.672 13.44-12.672zm0 18.816c3.84 0 5.76-2.928 5.76-6.144s-1.92-6.144-5.76-6.144-5.76 2.928-5.76 6.144 1.92 6.144 5.76 6.144zm32.936-3.984V82.192h7.872v24.192h-7.632v-3.6c-1.056 2.304-3.84 4.176-7.2 4.176-5.808 0-8.96-3.984-8.96-9.744V82.192h8.088v13.824c0 2.496 1.256 4.224 3.896 4.224 2.496 0 3.936-1.584 3.936-4.176zm29.464-14.448v7.824h-1.584c-4.32 0-6.096 1.776-6.096 6.48V106h-7.872V81.808h7.632v4.8c1.008-3.888 3.984-4.992 7.152-4.992h.768zM356.52 95.68V81.808h7.872V106h-7.632v-3.6c-1.056 2.304-3.84 4.176-7.2 4.176-5.808 0-8.592-3.984-8.592-9.744V81.808h7.872v13.824c0 2.496 1.104 4.224 3.744 4.224 2.496 0 3.936-1.584 3.936-4.176zm25.872 4.368c.96 0 1.728-.144 2.496-.384v6.24c-.816.336-3.024.672-4.656.672-5.808 0-8.448-3.456-8.448-8.784v-9.504h-4.176v-6.48h4.176V74.56h7.872v7.248h5.472v6.48h-5.472v9.024c0 1.872.864 2.736 2.736 2.736zm22.176-4.368V81.808h7.872V106h-7.632v-3.6c-1.056 2.304-3.84 4.176-7.2 4.176-5.808 0-8.592-3.984-8.592-9.744V81.808h7.872v13.824c0 2.496 1.104 4.224 3.744 4.224 2.496 0 3.936-1.584 3.936-4.176zm29.184-14.064v7.824h-1.584c-4.32 0-6.096 1.776-6.096 6.48V106H418.2V81.808h7.632v4.8c1.008-3.888 3.984-4.992 7.152-4.992h.768zm15.216 19.248c2.352 0 4.176-.912 5.088-2.4h7.248c-1.488 4.56-6.288 8.112-12.336 8.112-8.448 0-13.248-5.28-13.248-12.72 0-7.488 5.376-12.624 12.912-12.624 7.488 0 12.864 4.896 12.864 12.72v2.352h-18.048c.48 2.64 2.112 4.56 5.52 4.56zm-.24-14.16c-2.976 0-4.848 1.728-5.28 4.752h10.512c-.384-2.88-2.256-4.752-5.232-4.752z"/>
        <path stroke="#6F8AB9" stroke-width=".9" d="M263.45.45v81.1h7.186V.45h-7.186z"/>
        <path stroke="#6F8AB9" stroke-width=".9" d="M248.13 11.983v7.22h101.792l-7.137-7.22H248.13zM236.45 8.374h11.678v15.339H236.45zM331.374 19.559l-.004 53.83"/>
        <path fill="#003389" fill-opacity=".202" d="M341 92l7 15c-1.053-.207-1.917-.494-2.591-.86a7.824 7.824 0 0 1-2.424-2.02c-1.099-1.405-1.985-3.858-1.985-6.18V92z"/>
    </g>
</svg>
