<svg xmlns="http://www.w3.org/2000/svg" width="177" height="22" viewBox="0 0 177 22">
    <g fill="#FFF" fill-rule="evenodd">
        <path d="M130.225 6.57l-3.316-3.315 3.275-3.275 3.316 3.315zM0 7.526h5.86c0 4.796 3.937 8.685 8.792 8.685 4.856 0 8.792-3.889 8.792-8.685h5.86C29.305 15.52 22.745 22 14.653 22 6.56 22 0 15.52 0 7.526z"/>
        <path d="M14.669.554l4.144 4.144-4.093 4.094-4.144-4.145zM61.54 12.158V7.526h4.688v13.606H61.54v-1.678a5.29 5.29 0 0 1-4.103 1.935c-2.902 0-5.257-2.315-5.275-5.178V7.526h4.689v7.784c0 1.28 1.05 2.316 2.344 2.316 1.295 0 2.345-1.037 2.345-2.316v-3.153zM109.304 14.474h.002v6.658h-3.81v-1.256c-1.098.897-2.443 1.334-3.68 1.334-4.045 0-7.162-2.964-7.162-6.881 0-3.917 3.28-7.092 7.326-7.092 4.046 0 7.326 3.175 7.326 7.092 0 .05 0 .098-.002.145zm-7.177 2.894c1.699 0 3.077-1.425 3.077-3.184 0-1.758-1.378-3.184-3.077-3.184-1.7 0-3.077 1.426-3.077 3.184 0 1.759 1.377 3.184 3.077 3.184zM141.834 7.526h2.93v3.763h-2.93v4.021h.016c.126 1.143.99 2.027 2.036 2.027.314 0 .612-.08.879-.223v3.734a5.306 5.306 0 0 1-2.344.541c-2.903 0-5.258-2.315-5.275-5.178v-4.922H134.8V7.526h2.345V3.184h4.688v4.342zM92.896 16.51v4.632h-4.689v-7.784c0-1.28-1.05-2.316-2.344-2.316-1.295 0-2.345 1.037-2.345 2.316v7.784H78.83v-7.784c0-1.28-1.05-2.316-2.344-2.316-1.295 0-2.344 1.037-2.344 2.316v7.784h-4.689V7.536h4.689v1.678a5.29 5.29 0 0 1 4.102-1.935c1.735 0 3.275.827 4.236 2.104a5.877 5.877 0 0 1 4.556-2.146c3.237 0 5.86 2.592 5.86 5.79V16.51zM44.543 17.658v-4.31c0-1.28-1.05-2.316-2.344-2.316-1.295 0-2.345 1.037-2.345 2.316v7.784h-4.688V3.184h4.688v6.02a5.29 5.29 0 0 1 4.103-1.935c2.902 0 5.257 2.315 5.275 5.178V21.132h-4.689v-3.474zM121.028 17.626v-4.31c0-1.28-1.05-2.316-2.344-2.316-1.295 0-2.345 1.037-2.345 2.316V21.1h-4.688V7.495h4.688v1.677a5.29 5.29 0 0 1 4.103-1.935c2.903 0 5.257 2.316 5.275 5.179V21.1h-4.689v-3.474zM128.061 16.5V7.526h4.689v13.606h-4.689V16.5zM158.24 15.632h-7.407c.421 1.36 1.482 2.315 3.163 2.315 1.146 0 2.004-.444 2.567-1.158h4.218c-.915 2.705-3.379 4.632-6.932 4.632-4.56 0-7.326-3.175-7.326-7.092s3.28-7.092 7.326-7.092c4.046 0 7.326 3.175 7.326 7.092 0 .445-.035.88-.105 1.303h-2.829zm-7.436-2.895h6.384c-.371-1.36-1.351-2.316-3.192-2.316-1.841 0-2.82.956-3.192 2.316zM172.601 15.632h4.278c-.619 3.294-3.544 5.79-7.059 5.79-3.965 0-7.18-3.176-7.18-7.093s3.215-7.092 7.18-7.092c3.411 0 6.267 2.35 6.998 5.5h-4.376a3.083 3.083 0 0 0-2.622-1.448c-1.699 0-3.077 1.361-3.077 3.04s1.378 3.04 3.077 3.04a3.08 3.08 0 0 0 2.781-1.737z"/>
    </g>
</svg>
